<?xml version="1.0" encoding="UTF-8"?><svg xmlns="http://www.w3.org/2000/svg" xmlns:xlink="http://www.w3.org/1999/xlink" stroke-dasharray="none" shape-rendering="auto" font-family="'Dialog'" width="1401" text-rendering="auto" fill-opacity="1" contentScriptType="text/ecmascript" color-interpolation="auto" color-rendering="auto" preserveAspectRatio="xMidYMid meet" font-size="12" fill="black" stroke="black" image-rendering="auto" stroke-miterlimit="10" zoomAndPan="magnify" version="1.0" stroke-linecap="square" stroke-linejoin="miter" contentStyleType="text/css" font-style="normal" height="627" stroke-width="1" stroke-dashoffset="0" font-weight="normal" stroke-opacity="1">
<!--Generated by the Batik Graphics2D SVG Generator-->
<defs id="genericDefs"/>
<g>
<defs id="defs1">
<clipPath clipPathUnits="userSpaceOnUse" id="clipPath1">
<path d="M28 38 L1373 38 L1373 605 L28 605 L28 38 Z"/>
</clipPath>
<clipPath clipPathUnits="userSpaceOnUse" id="clipPath2">
<path d="M-1 -1 L1402 -1 L1402 628 L-1 628 L-1 -1 Z"/>
</clipPath>
</defs>
<g font-size="15" fill="white" text-rendering="geometricPrecision" font-family="'Ubuntu'" stroke-linejoin="round" stroke="white" stroke-width="0" stroke-miterlimit="0">
<rect x="29" y="39" clip-path="url(#clipPath1)" width="1343" height="565" stroke="none"/>
</g>
<g font-size="15" stroke-linecap="butt" fill="rgb(204,204,204)" text-rendering="geometricPrecision" font-family="'Ubuntu'" stroke-dasharray="3,3" stroke="rgb(204,204,204)">
<line clip-path="url(#clipPath1)" fill="none" x1="29" x2="29" y1="39" y2="604"/>
<line clip-path="url(#clipPath1)" fill="none" x1="121" x2="121" y1="39" y2="604"/>
<line clip-path="url(#clipPath1)" fill="none" x1="213" x2="213" y1="39" y2="604"/>
<line clip-path="url(#clipPath1)" fill="none" x1="305" x2="305" y1="39" y2="604"/>
<line clip-path="url(#clipPath1)" fill="none" x1="398" x2="398" y1="39" y2="604"/>
<line clip-path="url(#clipPath1)" fill="none" x1="490" x2="490" y1="39" y2="604"/>
<line clip-path="url(#clipPath1)" fill="none" x1="582" x2="582" y1="39" y2="604"/>
<line clip-path="url(#clipPath1)" fill="none" x1="675" x2="675" y1="39" y2="604"/>
<line clip-path="url(#clipPath1)" fill="none" x1="767" x2="767" y1="39" y2="604"/>
<line clip-path="url(#clipPath1)" fill="none" x1="859" x2="859" y1="39" y2="604"/>
<line clip-path="url(#clipPath1)" fill="none" x1="952" x2="952" y1="39" y2="604"/>
<line clip-path="url(#clipPath1)" fill="none" x1="1044" x2="1044" y1="39" y2="604"/>
<line clip-path="url(#clipPath1)" fill="none" x1="1136" x2="1136" y1="39" y2="604"/>
<line clip-path="url(#clipPath1)" fill="none" x1="1229" x2="1229" y1="39" y2="604"/>
<line clip-path="url(#clipPath1)" fill="none" x1="1321" x2="1321" y1="39" y2="604"/>
<line clip-path="url(#clipPath1)" fill="none" x1="29" x2="1372" y1="604" y2="604"/>
<line clip-path="url(#clipPath1)" fill="none" x1="29" x2="1372" y1="535" y2="535"/>
<line clip-path="url(#clipPath1)" fill="none" x1="29" x2="1372" y1="466" y2="466"/>
<line clip-path="url(#clipPath1)" fill="none" x1="29" x2="1372" y1="397" y2="397"/>
<line clip-path="url(#clipPath1)" fill="none" x1="29" x2="1372" y1="328" y2="328"/>
<line clip-path="url(#clipPath1)" fill="none" x1="29" x2="1372" y1="259" y2="259"/>
<line clip-path="url(#clipPath1)" fill="none" x1="29" x2="1372" y1="191" y2="191"/>
<line clip-path="url(#clipPath1)" fill="none" x1="29" x2="1372" y1="122" y2="122"/>
<line clip-path="url(#clipPath1)" fill="none" x1="29" x2="1372" y1="53" y2="53"/>
<rect x="29" y="596" clip-path="url(#clipPath1)" fill="rgb(0,0,139)" width="5" height="5" stroke="none"/>
<rect x="51" y="600" clip-path="url(#clipPath1)" fill="rgb(0,0,139)" width="5" height="5" stroke="none"/>
<rect x="71" y="600" clip-path="url(#clipPath1)" fill="rgb(0,0,139)" width="5" height="5" stroke="none"/>
<rect x="89" y="599" clip-path="url(#clipPath1)" fill="rgb(0,0,139)" width="5" height="5" stroke="none"/>
<rect x="101" y="600" clip-path="url(#clipPath1)" fill="rgb(0,0,139)" width="5" height="5" stroke="none"/>
<rect x="116" y="600" clip-path="url(#clipPath1)" fill="rgb(0,0,139)" width="5" height="5" stroke="none"/>
<rect x="134" y="600" clip-path="url(#clipPath1)" fill="rgb(0,0,139)" width="5" height="5" stroke="none"/>
<rect x="151" y="233" clip-path="url(#clipPath1)" fill="rgb(0,0,139)" width="5" height="5" stroke="none"/>
<rect x="163" y="600" clip-path="url(#clipPath1)" fill="rgb(0,0,139)" width="5" height="5" stroke="none"/>
<rect x="166" y="600" clip-path="url(#clipPath1)" fill="rgb(0,0,139)" width="5" height="5" stroke="none"/>
<rect x="180" y="600" clip-path="url(#clipPath1)" fill="rgb(0,0,139)" width="5" height="5" stroke="none"/>
<rect x="183" y="600" clip-path="url(#clipPath1)" fill="rgb(0,0,139)" width="5" height="5" stroke="none"/>
<rect x="192" y="600" clip-path="url(#clipPath1)" fill="rgb(0,0,139)" width="5" height="5" stroke="none"/>
<rect x="200" y="600" clip-path="url(#clipPath1)" fill="rgb(0,0,139)" width="5" height="5" stroke="none"/>
<rect x="210" y="600" clip-path="url(#clipPath1)" fill="rgb(0,0,139)" width="5" height="5" stroke="none"/>
<rect x="212" y="600" clip-path="url(#clipPath1)" fill="rgb(0,0,139)" width="5" height="5" stroke="none"/>
<rect x="229" y="600" clip-path="url(#clipPath1)" fill="rgb(0,0,139)" width="5" height="5" stroke="none"/>
<rect x="235" y="600" clip-path="url(#clipPath1)" fill="rgb(0,0,139)" width="5" height="5" stroke="none"/>
<rect x="251" y="599" clip-path="url(#clipPath1)" fill="rgb(0,0,139)" width="5" height="5" stroke="none"/>
<rect x="259" y="600" clip-path="url(#clipPath1)" fill="rgb(0,0,139)" width="5" height="5" stroke="none"/>
<rect x="266" y="600" clip-path="url(#clipPath1)" fill="rgb(0,0,139)" width="5" height="5" stroke="none"/>
<rect x="286" y="600" clip-path="url(#clipPath1)" fill="rgb(0,0,139)" width="5" height="5" stroke="none"/>
<rect x="290" y="600" clip-path="url(#clipPath1)" fill="rgb(0,0,139)" width="5" height="5" stroke="none"/>
<rect x="294" y="600" clip-path="url(#clipPath1)" fill="rgb(0,0,139)" width="5" height="5" stroke="none"/>
<rect x="317" y="600" clip-path="url(#clipPath1)" fill="rgb(0,0,139)" width="5" height="5" stroke="none"/>
<rect x="348" y="600" clip-path="url(#clipPath1)" fill="rgb(0,0,139)" width="5" height="5" stroke="none"/>
<rect x="356" y="600" clip-path="url(#clipPath1)" fill="rgb(0,0,139)" width="5" height="5" stroke="none"/>
<rect x="375" y="600" clip-path="url(#clipPath1)" fill="rgb(0,0,139)" width="5" height="5" stroke="none"/>
<rect x="396" y="600" clip-path="url(#clipPath1)" fill="rgb(0,0,139)" width="5" height="5" stroke="none"/>
<rect x="407" y="600" clip-path="url(#clipPath1)" fill="rgb(0,0,139)" width="5" height="5" stroke="none"/>
<rect x="413" y="600" clip-path="url(#clipPath1)" fill="rgb(0,0,139)" width="5" height="5" stroke="none"/>
<rect x="423" y="600" clip-path="url(#clipPath1)" fill="rgb(0,0,139)" width="5" height="5" stroke="none"/>
<rect x="425" y="599" clip-path="url(#clipPath1)" fill="rgb(0,0,139)" width="5" height="5" stroke="none"/>
<rect x="432" y="600" clip-path="url(#clipPath1)" fill="rgb(0,0,139)" width="5" height="5" stroke="none"/>
<rect x="436" y="600" clip-path="url(#clipPath1)" fill="rgb(0,0,139)" width="5" height="5" stroke="none"/>
<rect x="438" y="600" clip-path="url(#clipPath1)" fill="rgb(0,0,139)" width="5" height="5" stroke="none"/>
<rect x="451" y="600" clip-path="url(#clipPath1)" fill="rgb(0,0,139)" width="5" height="5" stroke="none"/>
<rect x="453" y="592" clip-path="url(#clipPath1)" fill="rgb(0,0,139)" width="5" height="5" stroke="none"/>
<rect x="471" y="600" clip-path="url(#clipPath1)" fill="rgb(0,0,139)" width="5" height="5" stroke="none"/>
<rect x="487" y="600" clip-path="url(#clipPath1)" fill="rgb(0,0,139)" width="5" height="5" stroke="none"/>
<rect x="504" y="600" clip-path="url(#clipPath1)" fill="rgb(0,0,139)" width="5" height="5" stroke="none"/>
<rect x="525" y="599" clip-path="url(#clipPath1)" fill="rgb(0,0,139)" width="5" height="5" stroke="none"/>
<rect x="541" y="599" clip-path="url(#clipPath1)" fill="rgb(0,0,139)" width="5" height="5" stroke="none"/>
<rect x="564" y="600" clip-path="url(#clipPath1)" fill="rgb(0,0,139)" width="5" height="5" stroke="none"/>
<rect x="581" y="600" clip-path="url(#clipPath1)" fill="rgb(0,0,139)" width="5" height="5" stroke="none"/>
<rect x="585" y="600" clip-path="url(#clipPath1)" fill="rgb(0,0,139)" width="5" height="5" stroke="none"/>
<rect x="593" y="599" clip-path="url(#clipPath1)" fill="rgb(0,0,139)" width="5" height="5" stroke="none"/>
<rect x="594" y="596" clip-path="url(#clipPath1)" fill="rgb(0,0,139)" width="5" height="5" stroke="none"/>
<rect x="612" y="600" clip-path="url(#clipPath1)" fill="rgb(0,0,139)" width="5" height="5" stroke="none"/>
<rect x="629" y="600" clip-path="url(#clipPath1)" fill="rgb(0,0,139)" width="5" height="5" stroke="none"/>
<rect x="651" y="600" clip-path="url(#clipPath1)" fill="rgb(0,0,139)" width="5" height="5" stroke="none"/>
<rect x="658" y="600" clip-path="url(#clipPath1)" fill="rgb(0,0,139)" width="5" height="5" stroke="none"/>
<rect x="672" y="600" clip-path="url(#clipPath1)" fill="rgb(0,0,139)" width="5" height="5" stroke="none"/>
<rect x="694" y="600" clip-path="url(#clipPath1)" fill="rgb(0,0,139)" width="5" height="5" stroke="none"/>
<rect x="709" y="600" clip-path="url(#clipPath1)" fill="rgb(0,0,139)" width="5" height="5" stroke="none"/>
<rect x="727" y="600" clip-path="url(#clipPath1)" fill="rgb(0,0,139)" width="5" height="5" stroke="none"/>
<rect x="733" y="600" clip-path="url(#clipPath1)" fill="rgb(0,0,139)" width="5" height="5" stroke="none"/>
<rect x="741" y="600" clip-path="url(#clipPath1)" fill="rgb(0,0,139)" width="5" height="5" stroke="none"/>
<rect x="752" y="599" clip-path="url(#clipPath1)" fill="rgb(0,0,139)" width="5" height="5" stroke="none"/>
<rect x="763" y="599" clip-path="url(#clipPath1)" fill="rgb(0,0,139)" width="5" height="5" stroke="none"/>
<rect x="784" y="599" clip-path="url(#clipPath1)" fill="rgb(0,0,139)" width="5" height="5" stroke="none"/>
<rect x="805" y="600" clip-path="url(#clipPath1)" fill="rgb(0,0,139)" width="5" height="5" stroke="none"/>
<rect x="821" y="600" clip-path="url(#clipPath1)" fill="rgb(0,0,139)" width="5" height="5" stroke="none"/>
<rect x="841" y="600" clip-path="url(#clipPath1)" fill="rgb(0,0,139)" width="5" height="5" stroke="none"/>
<rect x="850" y="600" clip-path="url(#clipPath1)" fill="rgb(0,0,139)" width="5" height="5" stroke="none"/>
<rect x="874" y="600" clip-path="url(#clipPath1)" fill="rgb(0,0,139)" width="5" height="5" stroke="none"/>
<rect x="886" y="187" clip-path="url(#clipPath1)" fill="rgb(0,0,139)" width="5" height="5" stroke="none"/>
<rect x="895" y="600" clip-path="url(#clipPath1)" fill="rgb(0,0,139)" width="5" height="5" stroke="none"/>
<rect x="909" y="600" clip-path="url(#clipPath1)" fill="rgb(0,0,139)" width="5" height="5" stroke="none"/>
<rect x="917" y="600" clip-path="url(#clipPath1)" fill="rgb(0,0,139)" width="5" height="5" stroke="none"/>
<rect x="926" y="600" clip-path="url(#clipPath1)" fill="rgb(0,0,139)" width="5" height="5" stroke="none"/>
<rect x="940" y="600" clip-path="url(#clipPath1)" fill="rgb(0,0,139)" width="5" height="5" stroke="none"/>
<rect x="943" y="600" clip-path="url(#clipPath1)" fill="rgb(0,0,139)" width="5" height="5" stroke="none"/>
<rect x="959" y="600" clip-path="url(#clipPath1)" fill="rgb(0,0,139)" width="5" height="5" stroke="none"/>
<rect x="963" y="600" clip-path="url(#clipPath1)" fill="rgb(0,0,139)" width="5" height="5" stroke="none"/>
<rect x="973" y="600" clip-path="url(#clipPath1)" fill="rgb(0,0,139)" width="5" height="5" stroke="none"/>
<rect x="995" y="599" clip-path="url(#clipPath1)" fill="rgb(0,0,139)" width="5" height="5" stroke="none"/>
<rect x="996" y="600" clip-path="url(#clipPath1)" fill="rgb(0,0,139)" width="5" height="5" stroke="none"/>
<rect x="1010" y="600" clip-path="url(#clipPath1)" fill="rgb(0,0,139)" width="5" height="5" stroke="none"/>
<rect x="1011" y="600" clip-path="url(#clipPath1)" fill="rgb(0,0,139)" width="5" height="5" stroke="none"/>
<rect x="1024" y="600" clip-path="url(#clipPath1)" fill="rgb(0,0,139)" width="5" height="5" stroke="none"/>
<rect x="1027" y="600" clip-path="url(#clipPath1)" fill="rgb(0,0,139)" width="5" height="5" stroke="none"/>
<rect x="1042" y="600" clip-path="url(#clipPath1)" fill="rgb(0,0,139)" width="5" height="5" stroke="none"/>
<rect x="1072" y="600" clip-path="url(#clipPath1)" fill="rgb(0,0,139)" width="5" height="5" stroke="none"/>
<rect x="1085" y="600" clip-path="url(#clipPath1)" fill="rgb(0,0,139)" width="5" height="5" stroke="none"/>
<rect x="1100" y="600" clip-path="url(#clipPath1)" fill="rgb(0,0,139)" width="5" height="5" stroke="none"/>
<rect x="1112" y="600" clip-path="url(#clipPath1)" fill="rgb(0,0,139)" width="5" height="5" stroke="none"/>
<rect x="1118" y="600" clip-path="url(#clipPath1)" fill="rgb(0,0,139)" width="5" height="5" stroke="none"/>
<rect x="1129" y="600" clip-path="url(#clipPath1)" fill="rgb(0,0,139)" width="5" height="5" stroke="none"/>
<rect x="1161" y="600" clip-path="url(#clipPath1)" fill="rgb(0,0,139)" width="5" height="5" stroke="none"/>
<rect x="1176" y="600" clip-path="url(#clipPath1)" fill="rgb(0,0,139)" width="5" height="5" stroke="none"/>
<rect x="1183" y="600" clip-path="url(#clipPath1)" fill="rgb(0,0,139)" width="5" height="5" stroke="none"/>
<rect x="1190" y="600" clip-path="url(#clipPath1)" fill="rgb(0,0,139)" width="5" height="5" stroke="none"/>
<rect x="1194" y="600" clip-path="url(#clipPath1)" fill="rgb(0,0,139)" width="5" height="5" stroke="none"/>
<rect x="1203" y="600" clip-path="url(#clipPath1)" fill="rgb(0,0,139)" width="5" height="5" stroke="none"/>
<rect x="1217" y="600" clip-path="url(#clipPath1)" fill="rgb(0,0,139)" width="5" height="5" stroke="none"/>
<rect x="1223" y="600" clip-path="url(#clipPath1)" fill="rgb(0,0,139)" width="5" height="5" stroke="none"/>
<rect x="1233" y="600" clip-path="url(#clipPath1)" fill="rgb(0,0,139)" width="5" height="5" stroke="none"/>
<rect x="1244" y="600" clip-path="url(#clipPath1)" fill="rgb(0,0,139)" width="5" height="5" stroke="none"/>
<rect x="1255" y="600" clip-path="url(#clipPath1)" fill="rgb(0,0,139)" width="5" height="5" stroke="none"/>
<rect x="1264" y="600" clip-path="url(#clipPath1)" fill="rgb(0,0,139)" width="5" height="5" stroke="none"/>
<rect x="1266" y="223" clip-path="url(#clipPath1)" fill="rgb(0,0,139)" width="5" height="5" stroke="none"/>
<rect x="1275" y="600" clip-path="url(#clipPath1)" fill="rgb(0,0,139)" width="5" height="5" stroke="none"/>
<rect x="1295" y="600" clip-path="url(#clipPath1)" fill="rgb(0,0,139)" width="5" height="5" stroke="none"/>
<rect x="1297" y="600" clip-path="url(#clipPath1)" fill="rgb(0,0,139)" width="5" height="5" stroke="none"/>
<rect x="1323" y="600" clip-path="url(#clipPath1)" fill="rgb(0,0,139)" width="5" height="5" stroke="none"/>
<rect x="1345" y="600" clip-path="url(#clipPath1)" fill="rgb(0,0,139)" width="5" height="5" stroke="none"/>
<circle clip-path="url(#clipPath1)" fill="rgb(238,0,0)" r="2" cx="33" cy="592" stroke="none"/>
<circle clip-path="url(#clipPath1)" fill="rgb(238,0,0)" r="2" cx="54" cy="600" stroke="none"/>
<circle clip-path="url(#clipPath1)" fill="rgb(238,0,0)" r="2" cx="73" cy="601" stroke="none"/>
<circle clip-path="url(#clipPath1)" fill="rgb(238,0,0)" r="2" cx="92" cy="600" stroke="none"/>
<circle clip-path="url(#clipPath1)" fill="rgb(238,0,0)" r="2" cx="104" cy="600" stroke="none"/>
<circle clip-path="url(#clipPath1)" fill="rgb(238,0,0)" r="2" cx="118" cy="601" stroke="none"/>
<circle clip-path="url(#clipPath1)" fill="rgb(238,0,0)" r="2" cx="140" cy="587" stroke="none"/>
<circle clip-path="url(#clipPath1)" fill="rgb(238,0,0)" r="2" cx="403" cy="273" stroke="none"/>
<circle clip-path="url(#clipPath1)" fill="rgb(238,0,0)" r="2" cx="420" cy="588" stroke="none"/>
<circle clip-path="url(#clipPath1)" fill="rgb(238,0,0)" r="2" cx="436" cy="597" stroke="none"/>
<circle clip-path="url(#clipPath1)" fill="rgb(238,0,0)" r="2" cx="734" cy="186" stroke="none"/>
<circle clip-path="url(#clipPath1)" fill="rgb(238,0,0)" r="2" cx="891" cy="180" stroke="none"/>
<circle clip-path="url(#clipPath1)" fill="rgb(238,0,0)" r="2" cx="911" cy="601" stroke="none"/>
<circle clip-path="url(#clipPath1)" fill="rgb(238,0,0)" r="2" cx="928" cy="601" stroke="none"/>
<circle clip-path="url(#clipPath1)" fill="rgb(238,0,0)" r="2" cx="946" cy="601" stroke="none"/>
<circle clip-path="url(#clipPath1)" fill="rgb(238,0,0)" r="2" cx="965" cy="600" stroke="none"/>
<circle clip-path="url(#clipPath1)" fill="rgb(238,0,0)" r="2" cx="1115" cy="600" stroke="none"/>
<circle clip-path="url(#clipPath1)" fill="rgb(238,0,0)" r="2" cx="1146" cy="557" stroke="none"/>
<circle clip-path="url(#clipPath1)" fill="rgb(238,0,0)" r="2" cx="1163" cy="600" stroke="none"/>
<circle clip-path="url(#clipPath1)" fill="rgb(238,0,0)" r="2" cx="1184" cy="583" stroke="none"/>
<circle clip-path="url(#clipPath1)" fill="rgb(238,0,0)" r="2" cx="1200" cy="592" stroke="none"/>
<circle clip-path="url(#clipPath1)" fill="rgb(238,0,0)" r="2" cx="1226" cy="600" stroke="none"/>
<circle clip-path="url(#clipPath1)" fill="rgb(238,0,0)" r="2" cx="1254" cy="575" stroke="none"/>
<polygon fill="rgb(0,100,0)" clip-path="url(#clipPath1)" points=" 154 229 157 234 151 234 154 229" stroke="none"/>
<polygon fill="rgb(0,100,0)" clip-path="url(#clipPath1)" points=" 166 598 169 603 163 603 166 598" stroke="none"/>
<polygon fill="rgb(0,100,0)" clip-path="url(#clipPath1)" points=" 182 597 185 602 179 602 182 597" stroke="none"/>
<polygon fill="rgb(0,100,0)" clip-path="url(#clipPath1)" points=" 202 598 205 603 199 603 202 598" stroke="none"/>
<polygon fill="rgb(0,100,0)" clip-path="url(#clipPath1)" points=" 218 586 221 591 215 591 218 586" stroke="none"/>
<polygon fill="rgb(0,100,0)" clip-path="url(#clipPath1)" points=" 243 581 246 586 240 586 243 581" stroke="none"/>
<polygon fill="rgb(0,100,0)" clip-path="url(#clipPath1)" points=" 262 596 265 601 259 601 262 596" stroke="none"/>
<polygon fill="rgb(0,100,0)" clip-path="url(#clipPath1)" points=" 411 592 414 597 408 597 411 592" stroke="none"/>
<polygon fill="rgb(0,100,0)" clip-path="url(#clipPath1)" points=" 426 596 429 601 423 601 426 596" stroke="none"/>
<polygon fill="rgb(0,100,0)" clip-path="url(#clipPath1)" points=" 439 598 442 603 436 603 439 598" stroke="none"/>
<polygon fill="rgb(0,100,0)" clip-path="url(#clipPath1)" points=" 457 584 460 589 454 589 457 584" stroke="none"/>
<polygon fill="rgb(0,100,0)" clip-path="url(#clipPath1)" points=" 473 598 476 603 470 603 473 598" stroke="none"/>
<polygon fill="rgb(0,100,0)" clip-path="url(#clipPath1)" points=" 490 597 493 602 487 602 490 597" stroke="none"/>
<polygon fill="rgb(0,100,0)" clip-path="url(#clipPath1)" points=" 509 590 512 595 506 595 509 590" stroke="none"/>
<polygon fill="rgb(0,100,0)" clip-path="url(#clipPath1)" points=" 531 588 534 593 528 593 531 588" stroke="none"/>
<polygon fill="rgb(0,100,0)" clip-path="url(#clipPath1)" points=" 551 576 554 581 548 581 551 576" stroke="none"/>
<polygon fill="rgb(0,100,0)" clip-path="url(#clipPath1)" points=" 569 590 572 595 566 595 569 590" stroke="none"/>
<polygon fill="rgb(0,100,0)" clip-path="url(#clipPath1)" points=" 589 592 592 597 586 597 589 592" stroke="none"/>
<polygon fill="rgb(0,100,0)" clip-path="url(#clipPath1)" points=" 597 595 600 600 594 600 597 595" stroke="none"/>
<polygon fill="rgb(0,100,0)" clip-path="url(#clipPath1)" points=" 614 596 617 601 611 601 614 596" stroke="none"/>
<polygon fill="rgb(0,100,0)" clip-path="url(#clipPath1)" points=" 636 583 639 588 633 588 636 583" stroke="none"/>
<polygon fill="rgb(0,100,0)" clip-path="url(#clipPath1)" points=" 653 598 656 603 650 603 653 598" stroke="none"/>
<polygon fill="rgb(0,100,0)" clip-path="url(#clipPath1)" points=" 661 597 664 602 658 602 661 597" stroke="none"/>
<polygon fill="rgb(0,100,0)" clip-path="url(#clipPath1)" points=" 676 594 679 599 673 599 676 594" stroke="none"/>
<polygon fill="rgb(0,100,0)" clip-path="url(#clipPath1)" points=" 696 597 699 602 693 602 696 597" stroke="none"/>
<polygon fill="rgb(0,100,0)" clip-path="url(#clipPath1)" points=" 711 597 714 602 708 602 711 597" stroke="none"/>
<polygon fill="rgb(0,100,0)" clip-path="url(#clipPath1)" points=" 731 592 734 597 728 597 731 592" stroke="none"/>
<polygon fill="rgb(0,100,0)" clip-path="url(#clipPath1)" points=" 835 322 838 327 832 327 835 322" stroke="none"/>
<polygon fill="rgb(0,100,0)" clip-path="url(#clipPath1)" points=" 862 571 865 576 859 576 862 571" stroke="none"/>
<polygon fill="rgb(0,100,0)" clip-path="url(#clipPath1)" points=" 876 597 879 602 873 602 876 597" stroke="none"/>
<polygon fill="rgb(0,100,0)" clip-path="url(#clipPath1)" points=" 898 598 901 603 895 603 898 598" stroke="none"/>
<polygon fill="rgb(0,100,0)" clip-path="url(#clipPath1)" points=" 920 595 923 600 917 600 920 595" stroke="none"/>
<polygon fill="rgb(0,100,0)" clip-path="url(#clipPath1)" points=" 943 596 946 601 940 601 943 596" stroke="none"/>
<polygon fill="rgb(0,100,0)" clip-path="url(#clipPath1)" points=" 963 592 966 597 960 597 963 592" stroke="none"/>
<polygon fill="rgb(0,100,0)" clip-path="url(#clipPath1)" points=" 978 590 981 595 975 595 978 590" stroke="none"/>
<polygon fill="rgb(0,100,0)" clip-path="url(#clipPath1)" points=" 997 598 1000 603 994 603 997 598" stroke="none"/>
<polygon fill="rgb(0,100,0)" clip-path="url(#clipPath1)" points=" 1012 598 1015 603 1009 603 1012 598" stroke="none"/>
<polygon fill="rgb(0,100,0)" clip-path="url(#clipPath1)" points=" 1030 597 1033 602 1027 602 1030 597" stroke="none"/>
<polygon fill="rgb(0,100,0)" clip-path="url(#clipPath1)" points=" 1185 597 1188 602 1182 602 1185 597" stroke="none"/>
<polygon fill="rgb(0,100,0)" clip-path="url(#clipPath1)" points=" 1195 592 1198 597 1192 597 1195 592" stroke="none"/>
<polygon fill="rgb(0,100,0)" clip-path="url(#clipPath1)" points=" 1206 598 1209 603 1203 603 1206 598" stroke="none"/>
<polygon fill="rgb(0,100,0)" clip-path="url(#clipPath1)" points=" 1220 595 1223 600 1217 600 1220 595" stroke="none"/>
<polygon fill="rgb(0,100,0)" clip-path="url(#clipPath1)" points=" 1241 582 1244 587 1238 587 1241 582" stroke="none"/>
<polygon fill="rgb(0,100,0)" clip-path="url(#clipPath1)" points=" 1259 592 1262 597 1256 597 1259 592" stroke="none"/>
<polygon fill="rgb(0,100,0)" clip-path="url(#clipPath1)" points=" 1266 598 1269 603 1263 603 1266 598" stroke="none"/>
<polygon fill="rgb(0,100,0)" clip-path="url(#clipPath1)" points=" 1278 598 1281 603 1275 603 1278 598" stroke="none"/>
<polygon fill="rgb(255,165,0)" clip-path="url(#clipPath1)" points=" 166 600 169 597 172 600 169 603 166 600" stroke="none"/>
<polygon fill="rgb(255,165,0)" clip-path="url(#clipPath1)" points=" 183 598 186 595 189 598 186 601 183 598" stroke="none"/>
<polygon fill="rgb(255,165,0)" clip-path="url(#clipPath1)" points=" 197 584 200 581 203 584 200 587 197 584" stroke="none"/>
<polygon fill="rgb(255,165,0)" clip-path="url(#clipPath1)" points=" 209 600 212 597 215 600 212 603 209 600" stroke="none"/>
<polygon fill="rgb(255,165,0)" clip-path="url(#clipPath1)" points=" 228 600 231 597 234 600 231 603 228 600" stroke="none"/>
<polygon fill="rgb(255,165,0)" clip-path="url(#clipPath1)" points=" 250 599 253 596 256 599 253 602 250 599" stroke="none"/>
<polygon fill="rgb(255,165,0)" clip-path="url(#clipPath1)" points=" 272 583 275 580 278 583 275 586 272 583" stroke="none"/>
<polygon fill="rgb(255,165,0)" clip-path="url(#clipPath1)" points=" 287 596 290 593 293 596 290 599 287 596" stroke="none"/>
<polygon fill="rgb(255,165,0)" clip-path="url(#clipPath1)" points=" 297 591 300 588 303 591 300 594 297 591" stroke="none"/>
<polygon fill="rgb(255,165,0)" clip-path="url(#clipPath1)" points=" 327 570 330 567 333 570 330 573 327 570" stroke="none"/>
<polygon fill="rgb(255,165,0)" clip-path="url(#clipPath1)" points=" 348 597 351 594 354 597 351 600 348 597" stroke="none"/>
<polygon fill="rgb(255,165,0)" clip-path="url(#clipPath1)" points=" 356 601 359 598 362 601 359 604 356 601" stroke="none"/>
<polygon fill="rgb(255,165,0)" clip-path="url(#clipPath1)" points=" 378 589 381 586 384 589 381 592 378 589" stroke="none"/>
<polygon fill="rgb(255,165,0)" clip-path="url(#clipPath1)" points=" 396 598 399 595 402 598 399 601 396 598" stroke="none"/>
<polygon fill="rgb(255,165,0)" clip-path="url(#clipPath1)" points=" 424 600 427 597 430 600 427 603 424 600" stroke="none"/>
<polygon fill="rgb(255,165,0)" clip-path="url(#clipPath1)" points=" 438 600 441 597 444 600 441 603 438 600" stroke="none"/>
<polygon fill="rgb(255,165,0)" clip-path="url(#clipPath1)" points=" 452 594 455 591 458 594 455 597 452 594" stroke="none"/>
<polygon fill="rgb(255,165,0)" clip-path="url(#clipPath1)" points=" 582 598 585 595 588 598 585 601 582 598" stroke="none"/>
<polygon fill="rgb(255,165,0)" clip-path="url(#clipPath1)" points=" 732 600 735 597 738 600 735 603 732 600" stroke="none"/>
<polygon fill="rgb(255,165,0)" clip-path="url(#clipPath1)" points=" 752 599 755 596 758 599 755 602 752 599" stroke="none"/>
<polygon fill="rgb(255,165,0)" clip-path="url(#clipPath1)" points=" 764 596 767 593 770 596 767 599 764 596" stroke="none"/>
<polygon fill="rgb(255,165,0)" clip-path="url(#clipPath1)" points=" 785 597 788 594 791 597 788 600 785 597" stroke="none"/>
<polygon fill="rgb(255,165,0)" clip-path="url(#clipPath1)" points=" 811 581 814 578 817 581 814 584 811 581" stroke="none"/>
<polygon fill="rgb(255,165,0)" clip-path="url(#clipPath1)" points=" 821 601 824 598 827 601 824 604 821 601" stroke="none"/>
<polygon fill="rgb(255,165,0)" clip-path="url(#clipPath1)" points=" 841 601 844 598 847 601 844 604 841 601" stroke="none"/>
<polygon fill="rgb(255,165,0)" clip-path="url(#clipPath1)" points=" 997 598 1000 595 1003 598 1000 601 997 598" stroke="none"/>
<polygon fill="rgb(255,165,0)" clip-path="url(#clipPath1)" points=" 1011 599 1014 596 1017 599 1014 602 1011 599" stroke="none"/>
<polygon fill="rgb(255,165,0)" clip-path="url(#clipPath1)" points=" 1023 601 1026 598 1029 601 1026 604 1023 601" stroke="none"/>
<polygon fill="rgb(255,165,0)" clip-path="url(#clipPath1)" points=" 1042 598 1045 595 1048 598 1045 601 1042 598" stroke="none"/>
<polygon fill="rgb(255,165,0)" clip-path="url(#clipPath1)" points=" 1071 601 1074 598 1077 601 1074 604 1071 601" stroke="none"/>
<polygon fill="rgb(255,165,0)" clip-path="url(#clipPath1)" points=" 1084 599 1087 596 1090 599 1087 602 1084 599" stroke="none"/>
<polygon fill="rgb(255,165,0)" clip-path="url(#clipPath1)" points=" 1099 601 1102 598 1105 601 1102 604 1099 601" stroke="none"/>
<polygon fill="rgb(255,165,0)" clip-path="url(#clipPath1)" points=" 1119 595 1122 592 1125 595 1122 598 1119 595" stroke="none"/>
<polygon fill="rgb(255,165,0)" clip-path="url(#clipPath1)" points=" 1272 205 1275 202 1278 205 1275 208 1272 205" stroke="none"/>
<polygon fill="rgb(255,165,0)" clip-path="url(#clipPath1)" points=" 1300 584 1303 581 1306 584 1303 587 1300 584" stroke="none"/>
<polygon fill="rgb(255,165,0)" clip-path="url(#clipPath1)" points=" 1323 599 1326 596 1329 599 1326 602 1323 599" stroke="none"/>
<polygon fill="rgb(255,165,0)" clip-path="url(#clipPath1)" points=" 1352 580 1355 577 1358 580 1355 583 1352 580" stroke="none"/>
<rect x="29" y="39" clip-path="url(#clipPath2)" fill="none" width="1343" stroke-dasharray="none" height="565" stroke="black"/>
</g>
<g text-rendering="geometricPrecision" font-size="13" font-family="'Arial'" stroke-linecap="butt">
<text xml:space="preserve" x="583" y="12" clip-path="url(#clipPath2)" stroke="none">Čas potovanja paketa (end-to-end delay)</text>
<line clip-path="url(#clipPath2)" fill="none" x1="29" x2="1372" y1="37" y2="37"/>
<line clip-path="url(#clipPath2)" fill="none" x1="29" x2="1372" y1="606" y2="606"/>
<text xml:space="preserve" x="700" y="623" clip-path="url(#clipPath2)" stroke="none"/>
<line clip-path="url(#clipPath2)" fill="none" x1="29" x2="29" y1="33" y2="37"/>
<line clip-path="url(#clipPath2)" fill="none" x1="29" x2="29" y1="610" y2="606"/>
<text font-size="11" x="28" y="30" clip-path="url(#clipPath2)" stroke="none" xml:space="preserve">0</text>
<text font-size="11" x="28" y="622" clip-path="url(#clipPath2)" stroke="none" xml:space="preserve">0</text>
<line clip-path="url(#clipPath2)" fill="none" x1="75" x2="75" y1="35" y2="37"/>
<line clip-path="url(#clipPath2)" fill="none" x1="75" x2="75" y1="608" y2="606"/>
<line clip-path="url(#clipPath2)" fill="none" x1="121" x2="121" y1="33" y2="37"/>
<line clip-path="url(#clipPath2)" fill="none" x1="121" x2="121" y1="610" y2="606"/>
<text font-size="11" x="120" y="30" clip-path="url(#clipPath2)" stroke="none" xml:space="preserve">2</text>
<text font-size="11" x="120" y="622" clip-path="url(#clipPath2)" stroke="none" xml:space="preserve">2</text>
<line clip-path="url(#clipPath2)" fill="none" x1="167" x2="167" y1="35" y2="37"/>
<line clip-path="url(#clipPath2)" fill="none" x1="167" x2="167" y1="608" y2="606"/>
<line clip-path="url(#clipPath2)" fill="none" x1="213" x2="213" y1="33" y2="37"/>
<line clip-path="url(#clipPath2)" fill="none" x1="213" x2="213" y1="610" y2="606"/>
<text font-size="11" x="212" y="30" clip-path="url(#clipPath2)" stroke="none" xml:space="preserve">4</text>
<text font-size="11" x="212" y="622" clip-path="url(#clipPath2)" stroke="none" xml:space="preserve">4</text>
<line clip-path="url(#clipPath2)" fill="none" x1="259" x2="259" y1="35" y2="37"/>
<line clip-path="url(#clipPath2)" fill="none" x1="259" x2="259" y1="608" y2="606"/>
<line clip-path="url(#clipPath2)" fill="none" x1="305" x2="305" y1="33" y2="37"/>
<line clip-path="url(#clipPath2)" fill="none" x1="305" x2="305" y1="610" y2="606"/>
<text font-size="11" x="304" y="30" clip-path="url(#clipPath2)" stroke="none" xml:space="preserve">6</text>
<text font-size="11" x="304" y="622" clip-path="url(#clipPath2)" stroke="none" xml:space="preserve">6</text>
<line clip-path="url(#clipPath2)" fill="none" x1="352" x2="352" y1="35" y2="37"/>
<line clip-path="url(#clipPath2)" fill="none" x1="352" x2="352" y1="608" y2="606"/>
<line clip-path="url(#clipPath2)" fill="none" x1="398" x2="398" y1="33" y2="37"/>
<line clip-path="url(#clipPath2)" fill="none" x1="398" x2="398" y1="610" y2="606"/>
<text font-size="11" x="397" y="30" clip-path="url(#clipPath2)" stroke="none" xml:space="preserve">8</text>
<text font-size="11" x="397" y="622" clip-path="url(#clipPath2)" stroke="none" xml:space="preserve">8</text>
<line clip-path="url(#clipPath2)" fill="none" x1="444" x2="444" y1="35" y2="37"/>
<line clip-path="url(#clipPath2)" fill="none" x1="444" x2="444" y1="608" y2="606"/>
<line clip-path="url(#clipPath2)" fill="none" x1="490" x2="490" y1="33" y2="37"/>
<line clip-path="url(#clipPath2)" fill="none" x1="490" x2="490" y1="610" y2="606"/>
<text font-size="11" x="486" y="30" clip-path="url(#clipPath2)" stroke="none" xml:space="preserve">10</text>
<text font-size="11" x="486" y="622" clip-path="url(#clipPath2)" stroke="none" xml:space="preserve">10</text>
<line clip-path="url(#clipPath2)" fill="none" x1="536" x2="536" y1="35" y2="37"/>
<line clip-path="url(#clipPath2)" fill="none" x1="536" x2="536" y1="608" y2="606"/>
<line clip-path="url(#clipPath2)" fill="none" x1="582" x2="582" y1="33" y2="37"/>
<line clip-path="url(#clipPath2)" fill="none" x1="582" x2="582" y1="610" y2="606"/>
<text font-size="11" x="578" y="30" clip-path="url(#clipPath2)" stroke="none" xml:space="preserve">12</text>
<text font-size="11" x="578" y="622" clip-path="url(#clipPath2)" stroke="none" xml:space="preserve">12</text>
<line clip-path="url(#clipPath2)" fill="none" x1="629" x2="629" y1="35" y2="37"/>
<line clip-path="url(#clipPath2)" fill="none" x1="629" x2="629" y1="608" y2="606"/>
<line clip-path="url(#clipPath2)" fill="none" x1="675" x2="675" y1="33" y2="37"/>
<line clip-path="url(#clipPath2)" fill="none" x1="675" x2="675" y1="610" y2="606"/>
<text font-size="11" x="671" y="30" clip-path="url(#clipPath2)" stroke="none" xml:space="preserve">14</text>
<text font-size="11" x="671" y="622" clip-path="url(#clipPath2)" stroke="none" xml:space="preserve">14</text>
<line clip-path="url(#clipPath2)" fill="none" x1="721" x2="721" y1="35" y2="37"/>
<line clip-path="url(#clipPath2)" fill="none" x1="721" x2="721" y1="608" y2="606"/>
<line clip-path="url(#clipPath2)" fill="none" x1="767" x2="767" y1="33" y2="37"/>
<line clip-path="url(#clipPath2)" fill="none" x1="767" x2="767" y1="610" y2="606"/>
<text font-size="11" x="763" y="30" clip-path="url(#clipPath2)" stroke="none" xml:space="preserve">16</text>
<text font-size="11" x="763" y="622" clip-path="url(#clipPath2)" stroke="none" xml:space="preserve">16</text>
<line clip-path="url(#clipPath2)" fill="none" x1="813" x2="813" y1="35" y2="37"/>
<line clip-path="url(#clipPath2)" fill="none" x1="813" x2="813" y1="608" y2="606"/>
<line clip-path="url(#clipPath2)" fill="none" x1="859" x2="859" y1="33" y2="37"/>
<line clip-path="url(#clipPath2)" fill="none" x1="859" x2="859" y1="610" y2="606"/>
<text font-size="11" x="855" y="30" clip-path="url(#clipPath2)" stroke="none" xml:space="preserve">18</text>
<text font-size="11" x="855" y="622" clip-path="url(#clipPath2)" stroke="none" xml:space="preserve">18</text>
<line clip-path="url(#clipPath2)" fill="none" x1="906" x2="906" y1="35" y2="37"/>
<line clip-path="url(#clipPath2)" fill="none" x1="906" x2="906" y1="608" y2="606"/>
<line clip-path="url(#clipPath2)" fill="none" x1="952" x2="952" y1="33" y2="37"/>
<line clip-path="url(#clipPath2)" fill="none" x1="952" x2="952" y1="610" y2="606"/>
<text font-size="11" x="948" y="30" clip-path="url(#clipPath2)" stroke="none" xml:space="preserve">20</text>
<text font-size="11" x="948" y="622" clip-path="url(#clipPath2)" stroke="none" xml:space="preserve">20</text>
<line clip-path="url(#clipPath2)" fill="none" x1="998" x2="998" y1="35" y2="37"/>
<line clip-path="url(#clipPath2)" fill="none" x1="998" x2="998" y1="608" y2="606"/>
<line clip-path="url(#clipPath2)" fill="none" x1="1044" x2="1044" y1="33" y2="37"/>
<line clip-path="url(#clipPath2)" fill="none" x1="1044" x2="1044" y1="610" y2="606"/>
<text font-size="11" x="1040" y="30" clip-path="url(#clipPath2)" stroke="none" xml:space="preserve">22</text>
<text font-size="11" x="1040" y="622" clip-path="url(#clipPath2)" stroke="none" xml:space="preserve">22</text>
<line clip-path="url(#clipPath2)" fill="none" x1="1090" x2="1090" y1="35" y2="37"/>
<line clip-path="url(#clipPath2)" fill="none" x1="1090" x2="1090" y1="608" y2="606"/>
<line clip-path="url(#clipPath2)" fill="none" x1="1136" x2="1136" y1="33" y2="37"/>
<line clip-path="url(#clipPath2)" fill="none" x1="1136" x2="1136" y1="610" y2="606"/>
<text font-size="11" x="1132" y="30" clip-path="url(#clipPath2)" stroke="none" xml:space="preserve">24</text>
<text font-size="11" x="1132" y="622" clip-path="url(#clipPath2)" stroke="none" xml:space="preserve">24</text>
<line clip-path="url(#clipPath2)" fill="none" x1="1183" x2="1183" y1="35" y2="37"/>
<line clip-path="url(#clipPath2)" fill="none" x1="1183" x2="1183" y1="608" y2="606"/>
<line clip-path="url(#clipPath2)" fill="none" x1="1229" x2="1229" y1="33" y2="37"/>
<line clip-path="url(#clipPath2)" fill="none" x1="1229" x2="1229" y1="610" y2="606"/>
<text font-size="11" x="1225" y="30" clip-path="url(#clipPath2)" stroke="none" xml:space="preserve">26</text>
<text font-size="11" x="1225" y="622" clip-path="url(#clipPath2)" stroke="none" xml:space="preserve">26</text>
<line clip-path="url(#clipPath2)" fill="none" x1="1275" x2="1275" y1="35" y2="37"/>
<line clip-path="url(#clipPath2)" fill="none" x1="1275" x2="1275" y1="608" y2="606"/>
<line clip-path="url(#clipPath2)" fill="none" x1="1321" x2="1321" y1="33" y2="37"/>
<line clip-path="url(#clipPath2)" fill="none" x1="1321" x2="1321" y1="610" y2="606"/>
<text font-size="11" x="1317" y="30" clip-path="url(#clipPath2)" stroke="none" xml:space="preserve">28</text>
<text font-size="11" x="1317" y="622" clip-path="url(#clipPath2)" stroke="none" xml:space="preserve">28</text>
<line clip-path="url(#clipPath2)" fill="none" x1="1367" x2="1367" y1="35" y2="37"/>
<line clip-path="url(#clipPath2)" fill="none" x1="1367" x2="1367" y1="608" y2="606"/>
<line clip-path="url(#clipPath2)" fill="none" x1="27" x2="27" y1="39" y2="604"/>
<line clip-path="url(#clipPath2)" fill="none" x1="1374" x2="1374" y1="39" y2="604"/>
<line clip-path="url(#clipPath2)" fill="none" x1="23" x2="27" y1="604" y2="604"/>
<line clip-path="url(#clipPath2)" fill="none" x1="1378" x2="1374" y1="604" y2="604"/>
<text font-size="11" x="17" y="609" clip-path="url(#clipPath2)" stroke="none" xml:space="preserve">0</text>
<text font-size="11" x="1381" y="609" clip-path="url(#clipPath2)" stroke="none" xml:space="preserve">0</text>
<line clip-path="url(#clipPath2)" fill="none" x1="25" x2="27" y1="590" y2="590"/>
<line clip-path="url(#clipPath2)" fill="none" x1="1376" x2="1374" y1="590" y2="590"/>
<line clip-path="url(#clipPath2)" fill="none" x1="25" x2="27" y1="576" y2="576"/>
<line clip-path="url(#clipPath2)" fill="none" x1="1376" x2="1374" y1="576" y2="576"/>
<line clip-path="url(#clipPath2)" fill="none" x1="25" x2="27" y1="562" y2="562"/>
<line clip-path="url(#clipPath2)" fill="none" x1="1376" x2="1374" y1="562" y2="562"/>
<line clip-path="url(#clipPath2)" fill="none" x1="25" x2="27" y1="548" y2="548"/>
<line clip-path="url(#clipPath2)" fill="none" x1="1376" x2="1374" y1="548" y2="548"/>
<line clip-path="url(#clipPath2)" fill="none" x1="23" x2="27" y1="535" y2="535"/>
<line clip-path="url(#clipPath2)" fill="none" x1="1378" x2="1374" y1="535" y2="535"/>
<text font-size="11" x="7" y="540" clip-path="url(#clipPath2)" stroke="none" xml:space="preserve">0.5</text>
<text font-size="11" x="1381" y="540" clip-path="url(#clipPath2)" stroke="none" xml:space="preserve">0.5</text>
<line clip-path="url(#clipPath2)" fill="none" x1="25" x2="27" y1="521" y2="521"/>
<line clip-path="url(#clipPath2)" fill="none" x1="1376" x2="1374" y1="521" y2="521"/>
<line clip-path="url(#clipPath2)" fill="none" x1="25" x2="27" y1="507" y2="507"/>
<line clip-path="url(#clipPath2)" fill="none" x1="1376" x2="1374" y1="507" y2="507"/>
<line clip-path="url(#clipPath2)" fill="none" x1="25" x2="27" y1="493" y2="493"/>
<line clip-path="url(#clipPath2)" fill="none" x1="1376" x2="1374" y1="493" y2="493"/>
<line clip-path="url(#clipPath2)" fill="none" x1="25" x2="27" y1="480" y2="480"/>
<line clip-path="url(#clipPath2)" fill="none" x1="1376" x2="1374" y1="480" y2="480"/>
<line clip-path="url(#clipPath2)" fill="none" x1="23" x2="27" y1="466" y2="466"/>
<line clip-path="url(#clipPath2)" fill="none" x1="1378" x2="1374" y1="466" y2="466"/>
<text font-size="11" x="7" y="471" clip-path="url(#clipPath2)" stroke="none" xml:space="preserve">1.0</text>
<text font-size="11" x="1381" y="471" clip-path="url(#clipPath2)" stroke="none" xml:space="preserve">1.0</text>
<line clip-path="url(#clipPath2)" fill="none" x1="25" x2="27" y1="452" y2="452"/>
<line clip-path="url(#clipPath2)" fill="none" x1="1376" x2="1374" y1="452" y2="452"/>
<line clip-path="url(#clipPath2)" fill="none" x1="25" x2="27" y1="438" y2="438"/>
<line clip-path="url(#clipPath2)" fill="none" x1="1376" x2="1374" y1="438" y2="438"/>
<line clip-path="url(#clipPath2)" fill="none" x1="25" x2="27" y1="425" y2="425"/>
<line clip-path="url(#clipPath2)" fill="none" x1="1376" x2="1374" y1="425" y2="425"/>
<line clip-path="url(#clipPath2)" fill="none" x1="25" x2="27" y1="411" y2="411"/>
<line clip-path="url(#clipPath2)" fill="none" x1="1376" x2="1374" y1="411" y2="411"/>
<line clip-path="url(#clipPath2)" fill="none" x1="23" x2="27" y1="397" y2="397"/>
<line clip-path="url(#clipPath2)" fill="none" x1="1378" x2="1374" y1="397" y2="397"/>
<text font-size="11" x="7" y="402" clip-path="url(#clipPath2)" stroke="none" xml:space="preserve">1.5</text>
<text font-size="11" x="1381" y="402" clip-path="url(#clipPath2)" stroke="none" xml:space="preserve">1.5</text>
<line clip-path="url(#clipPath2)" fill="none" x1="25" x2="27" y1="383" y2="383"/>
<line clip-path="url(#clipPath2)" fill="none" x1="1376" x2="1374" y1="383" y2="383"/>
<line clip-path="url(#clipPath2)" fill="none" x1="25" x2="27" y1="369" y2="369"/>
<line clip-path="url(#clipPath2)" fill="none" x1="1376" x2="1374" y1="369" y2="369"/>
<line clip-path="url(#clipPath2)" fill="none" x1="25" x2="27" y1="356" y2="356"/>
<line clip-path="url(#clipPath2)" fill="none" x1="1376" x2="1374" y1="356" y2="356"/>
<line clip-path="url(#clipPath2)" fill="none" x1="25" x2="27" y1="342" y2="342"/>
<line clip-path="url(#clipPath2)" fill="none" x1="1376" x2="1374" y1="342" y2="342"/>
<line clip-path="url(#clipPath2)" fill="none" x1="23" x2="27" y1="328" y2="328"/>
<line clip-path="url(#clipPath2)" fill="none" x1="1378" x2="1374" y1="328" y2="328"/>
<text font-size="11" x="7" y="333" clip-path="url(#clipPath2)" stroke="none" xml:space="preserve">2.0</text>
<text font-size="11" x="1381" y="333" clip-path="url(#clipPath2)" stroke="none" xml:space="preserve">2.0</text>
<line clip-path="url(#clipPath2)" fill="none" x1="25" x2="27" y1="314" y2="314"/>
<line clip-path="url(#clipPath2)" fill="none" x1="1376" x2="1374" y1="314" y2="314"/>
<line clip-path="url(#clipPath2)" fill="none" x1="25" x2="27" y1="301" y2="301"/>
<line clip-path="url(#clipPath2)" fill="none" x1="1376" x2="1374" y1="301" y2="301"/>
<line clip-path="url(#clipPath2)" fill="none" x1="25" x2="27" y1="287" y2="287"/>
<line clip-path="url(#clipPath2)" fill="none" x1="1376" x2="1374" y1="287" y2="287"/>
<line clip-path="url(#clipPath2)" fill="none" x1="25" x2="27" y1="273" y2="273"/>
<line clip-path="url(#clipPath2)" fill="none" x1="1376" x2="1374" y1="273" y2="273"/>
<line clip-path="url(#clipPath2)" fill="none" x1="23" x2="27" y1="259" y2="259"/>
<line clip-path="url(#clipPath2)" fill="none" x1="1378" x2="1374" y1="259" y2="259"/>
<text font-size="11" x="7" y="264" clip-path="url(#clipPath2)" stroke="none" xml:space="preserve">2.5</text>
<text font-size="11" x="1381" y="264" clip-path="url(#clipPath2)" stroke="none" xml:space="preserve">2.5</text>
<line clip-path="url(#clipPath2)" fill="none" x1="25" x2="27" y1="246" y2="246"/>
<line clip-path="url(#clipPath2)" fill="none" x1="1376" x2="1374" y1="246" y2="246"/>
<line clip-path="url(#clipPath2)" fill="none" x1="25" x2="27" y1="232" y2="232"/>
<line clip-path="url(#clipPath2)" fill="none" x1="1376" x2="1374" y1="232" y2="232"/>
<line clip-path="url(#clipPath2)" fill="none" x1="25" x2="27" y1="218" y2="218"/>
<line clip-path="url(#clipPath2)" fill="none" x1="1376" x2="1374" y1="218" y2="218"/>
<line clip-path="url(#clipPath2)" fill="none" x1="25" x2="27" y1="204" y2="204"/>
<line clip-path="url(#clipPath2)" fill="none" x1="1376" x2="1374" y1="204" y2="204"/>
<line clip-path="url(#clipPath2)" fill="none" x1="23" x2="27" y1="191" y2="191"/>
<line clip-path="url(#clipPath2)" fill="none" x1="1378" x2="1374" y1="191" y2="191"/>
<text font-size="11" x="7" y="196" clip-path="url(#clipPath2)" stroke="none" xml:space="preserve">3.0</text>
<text font-size="11" x="1381" y="196" clip-path="url(#clipPath2)" stroke="none" xml:space="preserve">3.0</text>
<line clip-path="url(#clipPath2)" fill="none" x1="25" x2="27" y1="177" y2="177"/>
<line clip-path="url(#clipPath2)" fill="none" x1="1376" x2="1374" y1="177" y2="177"/>
<line clip-path="url(#clipPath2)" fill="none" x1="25" x2="27" y1="163" y2="163"/>
<line clip-path="url(#clipPath2)" fill="none" x1="1376" x2="1374" y1="163" y2="163"/>
<line clip-path="url(#clipPath2)" fill="none" x1="25" x2="27" y1="149" y2="149"/>
<line clip-path="url(#clipPath2)" fill="none" x1="1376" x2="1374" y1="149" y2="149"/>
<line clip-path="url(#clipPath2)" fill="none" x1="25" x2="27" y1="135" y2="135"/>
<line clip-path="url(#clipPath2)" fill="none" x1="1376" x2="1374" y1="135" y2="135"/>
<line clip-path="url(#clipPath2)" fill="none" x1="23" x2="27" y1="122" y2="122"/>
<line clip-path="url(#clipPath2)" fill="none" x1="1378" x2="1374" y1="122" y2="122"/>
<text font-size="11" x="7" y="127" clip-path="url(#clipPath2)" stroke="none" xml:space="preserve">3.5</text>
<text font-size="11" x="1381" y="127" clip-path="url(#clipPath2)" stroke="none" xml:space="preserve">3.5</text>
<line clip-path="url(#clipPath2)" fill="none" x1="25" x2="27" y1="108" y2="108"/>
<line clip-path="url(#clipPath2)" fill="none" x1="1376" x2="1374" y1="108" y2="108"/>
<line clip-path="url(#clipPath2)" fill="none" x1="25" x2="27" y1="94" y2="94"/>
<line clip-path="url(#clipPath2)" fill="none" x1="1376" x2="1374" y1="94" y2="94"/>
<line clip-path="url(#clipPath2)" fill="none" x1="25" x2="27" y1="80" y2="80"/>
<line clip-path="url(#clipPath2)" fill="none" x1="1376" x2="1374" y1="80" y2="80"/>
<line clip-path="url(#clipPath2)" fill="none" x1="25" x2="27" y1="67" y2="67"/>
<line clip-path="url(#clipPath2)" fill="none" x1="1376" x2="1374" y1="67" y2="67"/>
<line clip-path="url(#clipPath2)" fill="none" x1="23" x2="27" y1="53" y2="53"/>
<line clip-path="url(#clipPath2)" fill="none" x1="1378" x2="1374" y1="53" y2="53"/>
<text font-size="11" x="7" y="58" clip-path="url(#clipPath2)" stroke="none" xml:space="preserve">4.0</text>
<text font-size="11" x="1381" y="58" clip-path="url(#clipPath2)" stroke="none" xml:space="preserve">4.0</text>
<line clip-path="url(#clipPath2)" fill="none" x1="25" x2="27" y1="39" y2="39"/>
<line clip-path="url(#clipPath2)" fill="none" x1="1376" x2="1374" y1="39" y2="39"/>
</g>
</g>
</svg>
